PathFileType	4	(X/Y/Z)	trajectory.trc
DataRate	CameraRate	NumFrames	NumMarkers	Units	OrigDataRate	OrigDataStartFrame	OrigNumFrames
50	50	137	2	m	50	1	10
Frame#	Time	mbladej			mend		
		X1	Y1	Z1	X2	Y2	Z2

0	0.0	3.8000	0.0000	0.0000	4.0250	0.0000	0.0000
1	0.02	3.8815	0.0000	0.0000	4.1065	0.0000	0.0000
2	0.04	3.9630	0.0000	0.0000	4.1880	0.0000	0.0000
3	0.06	4.0444	0.0000	0.0000	4.2694	0.0000	0.0000
4	0.08	4.1259	0.0000	0.0000	4.3509	0.0000	0.0000
5	0.1	4.2074	0.0000	0.0000	4.4324	0.0000	0.0000
6	0.12	4.2889	0.0000	0.0000	4.5139	0.0000	0.0000
7	0.14	4.3704	0.0000	0.0000	4.5954	0.0000	0.0000
8	0.16	4.4519	0.0000	0.0000	4.6769	0.0000	0.0000
9	0.18	4.5333	0.0000	0.0000	4.7583	0.0000	0.0000
10	0.2	4.6148	0.0000	0.0000	4.8398	0.0000	0.0000
11	0.22	4.6963	0.0000	0.0000	4.9213	0.0000	0.0000
12	0.24	4.7778	0.0000	0.0000	5.0028	0.0000	0.0000
13	0.26	4.8593	0.0000	0.0000	5.0843	0.0000	0.0000
14	0.28	4.9407	0.0000	0.0000	5.1657	0.0000	0.0000
15	0.3	5.0222	0.0000	0.0000	5.2472	0.0000	0.0000
16	0.32	5.1037	0.0000	0.0000	5.3287	0.0000	0.0000
17	0.34	5.1852	0.0000	0.0000	5.4102	0.0000	0.0000
18	0.36	5.2667	0.0000	0.0000	5.4917	0.0000	0.0000
19	0.38	5.3481	0.0000	0.0000	5.5731	0.0000	0.0000
20	0.4	5.4296	0.0000	0.0000	5.6546	0.0000	0.0000
21	0.42	5.5111	0.0000	0.0000	5.7361	0.0000	0.0000
22	0.44	5.5926	0.0000	0.0000	5.8176	0.0000	0.0000
23	0.46	5.6741	0.0000	0.0000	5.8991	0.0000	0.0000
24	0.48	5.7556	0.0000	0.0000	5.9806	0.0000	0.0000
25	0.5	5.8370	0.0000	0.0000	6.0620	0.0000	0.0000
26	0.52	5.9185	0.0000	0.0000	6.1435	0.0000	0.0000
27	0.54	6.0000	0.0000	0.0000	6.2250	0.0000	0.0000
28	0.56	6.0100	0.0500	0.0000	6.2350	0.0500	0.0000
29	0.58	6.0200	0.1000	0.0000	6.2450	0.1000	0.0000
30	0.6	6.0300	0.1500	0.0000	6.2550	0.1500	0.0000
31	0.62	6.0300	0.2000	0.0000	6.2550	0.2000	0.0000
32	0.64	6.0200	0.2500	0.0000	6.2450	0.2500	0.0000
33	0.66	6.0100	0.3000	0.0000	6.2350	0.3000	0.0000
34	0.68	6.0000	0.3000	0.0000	6.2250	0.3000	0.0000
35	0.7	5.9633	0.3000	0.0000	6.1883	0.3000	0.0000
36	0.72	5.9267	0.3000	0.0000	6.1517	0.3000	0.0000
37	0.74	5.8900	0.3000	0.0000	6.1150	0.3000	0.0000
38	0.76	5.8533	0.3000	0.0000	6.0783	0.3000	0.0000
39	0.78	5.8167	0.3000	0.0000	6.0417	0.3000	0.0000
40	0.8	5.7800	0.3000	0.0000	6.0050	0.3000	0.0000
41	0.82	5.7433	0.3000	0.0000	5.9683	0.3000	0.0000
42	0.84	5.7067	0.3000	0.0000	5.9317	0.3000	0.0000
43	0.86	5.6700	0.3000	0.0000	5.8950	0.3000	0.0000
44	0.88	5.6333	0.3000	0.0000	5.8583	0.3000	0.0000
45	0.9	5.5967	0.3000	0.0000	5.8217	0.3000	0.0000
46	0.92	5.5600	0.3000	0.0000	5.7850	0.3000	0.0000
47	0.94	5.5233	0.3000	0.0000	5.7483	0.3000	0.0000
48	0.96	5.4867	0.3000	0.0000	5.7117	0.3000	0.0000
49	0.98	5.4500	0.3000	0.0000	5.6750	0.3000	0.0000
50	1.0	5.4133	0.3000	0.0000	5.6383	0.3000	0.0000
51	1.02	5.3767	0.3000	0.0000	5.6017	0.3000	0.0000
52	1.04	5.3400	0.3000	0.0000	5.5650	0.3000	0.0000
53	1.06	5.3033	0.3000	0.0000	5.5283	0.3000	0.0000
54	1.08	5.2667	0.3000	0.0000	5.4917	0.3000	0.0000
55	1.1	5.2300	0.3000	0.0000	5.4550	0.3000	0.0000
56	1.12	5.1933	0.3000	0.0000	5.4183	0.3000	0.0000
57	1.14	5.1567	0.3000	0.0000	5.3817	0.3000	0.0000
58	1.16	5.1200	0.3000	0.0000	5.3450	0.3000	0.0000
59	1.18	5.0833	0.3000	0.0000	5.3083	0.3000	0.0000
60	1.2	5.0467	0.3000	0.0000	5.2717	0.3000	0.0000
61	1.22	5.0100	0.3000	0.0000	5.2350	0.3000	0.0000
62	1.24	4.9733	0.3000	0.0000	5.1983	0.3000	0.0000
63	1.26	4.9367	0.3000	0.0000	5.1617	0.3000	0.0000
64	1.28	4.9000	0.3000	0.0000	5.1250	0.3000	0.0000
65	1.3	4.8633	0.3000	0.0000	5.0883	0.3000	0.0000
66	1.32	4.8267	0.3000	0.0000	5.0517	0.3000	0.0000
67	1.34	4.7900	0.3000	0.0000	5.0150	0.3000	0.0000
68	1.36	4.7533	0.3000	0.0000	4.9783	0.3000	0.0000
69	1.38	4.7167	0.3000	0.0000	4.9417	0.3000	0.0000
70	1.4	4.6800	0.3000	0.0000	4.9050	0.3000	0.0000
71	1.42	4.6433	0.3000	0.0000	4.8683	0.3000	0.0000
72	1.44	4.6067	0.3000	0.0000	4.8317	0.3000	0.0000
73	1.46	4.5700	0.3000	0.0000	4.7950	0.3000	0.0000
74	1.48	4.5333	0.3000	0.0000	4.7583	0.3000	0.0000
75	1.5	4.4967	0.3000	0.0000	4.7217	0.3000	0.0000
76	1.52	4.4600	0.3000	0.0000	4.6850	0.3000	0.0000
77	1.54	4.4233	0.3000	0.0000	4.6483	0.3000	0.0000
78	1.56	4.3867	0.3000	0.0000	4.6117	0.3000	0.0000
79	1.58	4.3500	0.3000	0.0000	4.5750	0.3000	0.0000
80	1.6	4.3133	0.3000	0.0000	4.5383	0.3000	0.0000
81	1.62	4.2767	0.3000	0.0000	4.5017	0.3000	0.0000
82	1.64	4.2400	0.3000	0.0000	4.4650	0.3000	0.0000
83	1.66	4.2033	0.3000	0.0000	4.4283	0.3000	0.0000
84	1.68	4.1667	0.3000	0.0000	4.3917	0.3000	0.0000
85	1.7	4.1300	0.3000	0.0000	4.3550	0.3000	0.0000
86	1.72	4.0933	0.3000	0.0000	4.3183	0.3000	0.0000
87	1.74	4.0567	0.3000	0.0000	4.2817	0.3000	0.0000
88	1.76	4.0200	0.3000	0.0000	4.2450	0.3000	0.0000
89	1.78	3.9833	0.3000	0.0000	4.2083	0.3000	0.0000
90	1.8	3.9467	0.3000	0.0000	4.1717	0.3000	0.0000
91	1.82	3.9100	0.3000	0.0000	4.1350	0.3000	0.0000
92	1.84	3.8733	0.3000	0.0000	4.0983	0.3000	0.0000
93	1.86	3.8367	0.3000	0.0000	4.0617	0.3000	0.0000
94	1.88	3.7900	0.2500	0.0000	4.0150	0.2500	0.0000
95	1.9	3.7800	0.2000	0.0000	4.0050	0.2000	0.0000
96	1.92	3.7700	0.1500	0.0000	3.9950	0.1500	0.0000
97	1.94	3.7700	0.1000	0.0000	3.9950	0.1000	0.0000
98	1.96	3.7800	0.0500	0.0000	4.0050	0.0500	0.0000
99	1.98	3.7900	0.0000	0.0000	4.0150	0.0000	0.0000
100	2.0	3.8000	0.0000	0.0000	4.0250	0.0000	0.0000
101	2.02	3.8815	0.0000	0.0000	4.1065	0.0000	0.0000
102	2.04	3.9630	0.0000	0.0000	4.1880	0.0000	0.0000
103	2.06	4.0444	0.0000	0.0000	4.2694	0.0000	0.0000
104	2.08	4.1259	0.0000	0.0000	4.3509	0.0000	0.0000
105	2.1	4.2074	0.0000	0.0000	4.4324	0.0000	0.0000
106	2.12	4.2889	0.0000	0.0000	4.5139	0.0000	0.0000
107	2.14	4.3704	0.0000	0.0000	4.5954	0.0000	0.0000
108	2.16	4.4519	0.0000	0.0000	4.6769	0.0000	0.0000
109	2.18	4.5333	0.0000	0.0000	4.7583	0.0000	0.0000
110	2.2	4.6148	0.0000	0.0000	4.8398	0.0000	0.0000
111	2.22	4.6963	0.0000	0.0000	4.9213	0.0000	0.0000
112	2.24	4.7778	0.0000	0.0000	5.0028	0.0000	0.0000
113	2.26	4.8593	0.0000	0.0000	5.0843	0.0000	0.0000
114	2.28	4.9407	0.0000	0.0000	5.1657	0.0000	0.0000
115	2.3	5.0222	0.0000	0.0000	5.2472	0.0000	0.0000
116	2.32	5.1037	0.0000	0.0000	5.3287	0.0000	0.0000
117	2.34	5.1852	0.0000	0.0000	5.4102	0.0000	0.0000
118	2.36	5.2667	0.0000	0.0000	5.4917	0.0000	0.0000
119	2.38	5.3481	0.0000	0.0000	5.5731	0.0000	0.0000
120	2.4	5.4296	0.0000	0.0000	5.6546	0.0000	0.0000
121	2.42	5.5111	0.0000	0.0000	5.7361	0.0000	0.0000
122	2.44	5.5926	0.0000	0.0000	5.8176	0.0000	0.0000
123	2.46	5.6741	0.0000	0.0000	5.8991	0.0000	0.0000
124	2.48	5.7556	0.0000	0.0000	5.9806	0.0000	0.0000
125	2.5	5.8370	0.0000	0.0000	6.0620	0.0000	0.0000
126	2.52	5.9185	0.0000	0.0000	6.1435	0.0000	0.0000
127	2.54	6.0000	0.0000	0.0000	6.2250	0.0000	0.0000
128	2.56	6.0100	0.0500	0.0000	6.2350	0.0500	0.0000
129	2.58	6.0200	0.1000	0.0000	6.2450	0.1000	0.0000
130	2.6	6.0300	0.1500	0.0000	6.2550	0.1500	0.0000
131	2.62	6.0300	0.2000	0.0000	6.2550	0.2000	0.0000
132	2.64	6.0200	0.2500	0.0000	6.2450	0.2500	0.0000
133	2.66	6.0100	0.3000	0.0000	6.2350	0.3000	0.0000
134	2.68	6.0000	0.3000	0.0000	6.2250	0.3000	0.0000
135	2.7	5.9633	0.3000	0.0000	6.1883	0.3000	0.0000
136	2.72	5.9267	0.3000	0.0000	6.1517	0.3000	0.0000
